<?xml version="1.0" encoding="UTF-8"?>
<svg id="Layer_1" data-name="Layer 1" xmlns="http://www.w3.org/2000/svg" viewBox="0 0 1080 282.69">
  <defs>
    <style>
      .cls-1 {
        fill: #333;
      }

      .cls-2 {
        fill: #ccc;
      }
    </style>
  </defs>
  <rect class="cls-1" x="936.63" y="61.28" width="79.19" height="20.76" rx="10.38" ry="10.38"/>
  <rect class="cls-2" x="1021.71" y="61.28" width="58.29" height="20.76" rx="10.38" ry="10.38"/>
  <rect class="cls-1" x="936.63" y="30.64" width="41.26" height="20.76" rx="10.38" ry="10.38"/>
  <rect class="cls-1" x="936.63" y="0" width="109.04" height="20.76" rx="10.38" ry="10.38"/>
  <rect class="cls-2" x="984.66" y="30.64" width="41.54" height="20.76" rx="10.38" ry="10.38"/>
  <rect class="cls-2" x="1050.85" y="0" width="27.17" height="20.76" rx="10.38" ry="10.38"/>
  <path class="cls-1" d="M83.45,221.92c-13.51,0-25.8-2.42-36.89-7.26-11.09-4.84-20.59-11.74-28.5-20.71C10.15,184.98,4.13,174.3,0,161.9l39-14.66c4.63,9.88,10.93,17.97,18.9,24.26,7.96,6.3,16.83,9.45,26.61,9.45s18.14-2.01,24.19-6.05c6.05-4.03,9.07-9.88,9.07-17.54,0-5.24-1.76-9.57-5.29-13-3.53-3.42-8.37-6.42-14.51-8.99-6.15-2.57-13.2-5.16-21.16-7.79-7.86-2.62-15.82-5.52-23.89-8.69-8.06-3.17-15.47-7.13-22.22-11.87-6.75-4.74-12.17-10.76-16.25-18.07-4.08-7.31-6.12-16.35-6.12-27.14s2.85-20.48,8.54-29.4c5.69-8.92,13.96-16.05,24.79-21.39,10.83-5.34,23.96-8.01,39.38-8.01,12.7,0,23.98,2.24,33.86,6.73,9.88,4.48,18.04,10.56,24.49,18.22,6.45,7.66,10.98,16.28,13.61,25.85l-38.7,12.85c-2.92-6.45-7.13-11.84-12.62-16.18-5.49-4.33-13.13-6.5-22.9-6.5-8.67,0-15.34,1.59-20.03,4.76-4.69,3.17-7.03,7.79-7.03,13.83,0,3.93,1.59,7.28,4.76,10.05,3.18,2.77,7.56,5.27,13.15,7.48,5.59,2.22,12.02,4.59,19.27,7.1,8.67,2.92,17.28,6.15,25.85,9.67,8.56,3.53,16.35,7.86,23.36,13,7,5.14,12.6,11.54,16.78,19.2,4.18,7.66,6.27,17.13,6.27,28.42,0,13.6-3.43,25.2-10.28,34.77-6.85,9.58-16.15,16.91-27.89,22-11.74,5.09-24.92,7.63-39.53,7.63Z"/>
  <path class="cls-1" d="M294.94,282.69l-23.58-35.38c15.01-1.11,26.48-2.67,34.39-4.69,7.91-2.02,13.3-4.86,16.18-8.54,2.87-3.68,4.31-8.64,4.31-14.89v-8.01c-7.36,7.15-17.69,10.73-30.99,10.73s-25.4-3.23-35.07-9.67c-9.67-6.45-17.11-15.72-22.3-27.82-5.19-12.09-7.79-26.61-7.79-43.54s2.72-30.39,8.16-42.48c5.44-12.09,13.05-21.49,22.83-28.19,9.77-6.7,21.21-10.05,34.32-10.05,6.55,0,12.47,.93,17.76,2.8,5.29,1.87,9.65,4.61,13.08,8.24v-7.41h41.57V201.21c0,14.51-1.21,26.73-3.63,36.66-2.42,9.92-6.4,17.96-11.94,24.11-5.54,6.15-13,10.81-22.37,13.99-9.37,3.17-21.01,5.41-34.92,6.73Zm6.65-100.68c4.94,0,9.47-.98,13.61-2.95,4.13-1.96,7.81-4.71,11.04-8.24v-59.41c-2.62-3.33-6.1-6.05-10.43-8.16-4.33-2.12-8.82-3.17-13.45-3.17-9.98,0-17.59,3.48-22.83,10.43-5.24,6.95-7.86,17.08-7.86,30.39,0,8.87,1.16,16.33,3.48,22.37,2.32,6.05,5.69,10.68,10.13,13.91,4.43,3.23,9.88,4.84,16.33,4.84Z"/>
  <path class="cls-1" d="M389.42,218.29V19.05L430.99,0V78.31c4.94-6.05,10.91-10.58,17.91-13.61,7.01-3.02,14.99-4.54,23.96-4.54,11.39,0,21.06,2.39,29.02,7.18,7.96,4.79,14.06,11.62,18.29,20.48,4.23,8.87,6.35,19.4,6.35,31.59v98.87h-41.57v-81.78c0-12.8-1.96-22.07-5.89-27.82-3.93-5.74-10.58-8.62-19.96-8.62s-16.78,2.9-21.31,8.69c-4.54,5.8-6.8,14.84-6.8,27.14v82.39h-41.57Z"/>
  <path class="cls-1" d="M587.91,221.92c-12.9,0-22.5-3.45-28.8-10.36-6.3-6.9-9.45-17.26-9.45-31.07V100.38h-21.77V63.79h21.77V19.65L590.93,0V63.79h34.01v36.58h-34.01v73.92c0,3.93,.88,6.88,2.64,8.84,1.76,1.97,4.51,2.95,8.24,2.95,7.56,0,15.87-2.17,24.94-6.5l-4.69,35.37c-4.74,2.22-9.93,3.93-15.57,5.14-5.65,1.21-11.84,1.81-18.59,1.81Z"/>
  <path class="cls-1" d="M215.87,63.9V218.3h-41.56V63.89c5.44,5.08,12.74,8.2,20.78,8.2s15.34-3.12,20.78-8.19Z"/>
  <path class="cls-1" d="M195.01,56.56c-6.55,0-12.2-2.37-16.93-7.11-4.74-4.74-7.11-10.38-7.11-16.93s2.34-12.14,7.03-16.78c4.69-4.63,10.36-6.95,17.01-6.95s12.72,2.27,17.31,6.8c4.59,4.54,6.88,10.18,6.88,16.93s-2.34,12.32-7.03,17.01-10.41,7.03-17.16,7.03Z"/>
  <path class="cls-1" d="M702.51,222.54c-15.15,0-28.22-3.31-39.21-9.92-10.98-6.61-19.43-16.02-25.33-28.22-5.9-12.21-8.85-26.75-8.85-43.63s3-31.12,9-43.33c6-12.2,14.49-21.61,25.48-28.22,10.98-6.61,23.95-9.92,38.9-9.92,12.92,0,24.61,2.67,35.09,8.01,10.47,5.34,18.79,13.48,24.94,24.41,6.15,10.93,9.23,24.74,9.23,41.42,0,2.85-.05,6.28-.15,10.3-.1,4.02-.41,8.01-.91,11.98h-100.54c.2,6.41,1.65,11.95,4.35,16.63,2.69,4.68,6.43,8.31,11.21,10.91,4.78,2.59,10.42,3.89,16.93,3.89,7.73,0,14.29-1.24,19.68-3.74,5.39-2.49,10.58-6.58,15.56-12.28l24.1,24.56c-7.02,8.24-15.43,14.82-25.25,19.76-9.82,4.93-21.23,7.4-34.25,7.4Zm-31.88-99.16h60.87c-.61-6-2.14-11.14-4.58-15.41-2.44-4.27-5.77-7.5-9.99-9.69-4.22-2.19-9.33-3.28-15.33-3.28-8.24,0-15.18,2.44-20.82,7.32s-9.03,11.9-10.15,21.05Z"/>
  <path class="cls-1" d="M845.16,222.54c-20.24,0-36-7.19-47.29-21.59-11.29-14.39-16.93-34.45-16.93-60.18,0-16.07,2.72-30.23,8.16-42.49,5.44-12.25,13.02-21.82,22.73-28.68,9.71-6.87,20.98-10.3,33.79-10.3s24.15,5.14,32.19,15.41V17.5L919.76-1.42V218.87h-41.95v-12.97c-6.51,11.09-17.39,16.63-32.65,16.63Zm7.02-40.28c6.31,0,11.47-.91,15.48-2.74,4.02-1.83,7.4-4.68,10.15-8.54v-59.65c-2.75-3.66-6.43-6.53-11.06-8.62-4.63-2.08-9.49-3.13-14.57-3.13-9.25,0-16.45,3.53-21.59,10.6-5.14,7.07-7.71,17.27-7.71,30.59,0,9.05,1.12,16.63,3.36,22.73,2.24,6.1,5.54,10.76,9.92,13.96,4.37,3.2,9.71,4.8,16.02,4.8Z"/>
</svg>