<?xml version="1.0" encoding="utf-8"?>
<!-- Generator: Adobe Illustrator 27.0.0, SVG Export Plug-In . SVG Version: 6.00 Build 0)  -->
<svg version="1.1" id="Layer_1" xmlns="http://www.w3.org/2000/svg" xmlns:xlink="http://www.w3.org/1999/xlink" x="0px" y="0px"
	 viewBox="0 0 1080 282.7" style="enable-background:new 0 0 1080 282.7;" xml:space="preserve">
<style type="text/css">
	.st0{fill:#E8E8E8;}
</style>
<path class="st0" d="M947,61.3h58.4c5.7,0,10.4,4.6,10.4,10.4v0c0,5.7-4.6,10.4-10.4,10.4H947c-5.7,0-10.4-4.6-10.4-10.4v0
	C936.6,65.9,941.3,61.3,947,61.3z"/>
<path class="st0" d="M1032.1,61.3h37.5c5.7,0,10.4,4.6,10.4,10.4v0c0,5.7-4.6,10.4-10.4,10.4h-37.5c-5.7,0-10.4-4.6-10.4-10.4v0
	C1021.7,65.9,1026.4,61.3,1032.1,61.3z"/>
<path class="st0" d="M947,30.6h20.5c5.7,0,10.4,4.6,10.4,10.4l0,0c0,5.7-4.6,10.4-10.4,10.4H947c-5.7,0-10.4-4.6-10.4-10.4l0,0
	C936.6,35.3,941.3,30.6,947,30.6z"/>
<path class="st0" d="M947,0h88.3c5.7,0,10.4,4.6,10.4,10.4l0,0c0,5.7-4.6,10.4-10.4,10.4H947c-5.7,0-10.4-4.6-10.4-10.4l0,0
	C936.6,4.6,941.3,0,947,0z"/>
<path class="st0" d="M995,30.6h20.8c5.7,0,10.4,4.6,10.4,10.4l0,0c0,5.7-4.6,10.4-10.4,10.4H995c-5.7,0-10.4-4.6-10.4-10.4l0,0
	C984.7,35.3,989.3,30.6,995,30.6z"/>
<path class="st0" d="M1061.2,0h6.4c5.7,0,10.4,4.6,10.4,10.4l0,0c0,5.7-4.6,10.4-10.4,10.4h-6.4c-5.7,0-10.4-4.6-10.4-10.4l0,0
	C1050.8,4.6,1055.5,0,1061.2,0z"/>
<path class="st0" d="M83.4,221.9c-13.5,0-25.8-2.4-36.9-7.3S26,202.9,18.1,194c-7.9-9-13.9-19.7-18.1-32.1l39-14.7
	c4.6,9.9,10.9,18,18.9,24.3c8,6.3,16.8,9.4,26.6,9.4s18.1-2,24.2-6.1c6.1-4,9.1-9.9,9.1-17.5c0-5.2-1.8-9.6-5.3-13
	c-3.5-3.4-8.4-6.4-14.5-9c-6.2-2.6-13.2-5.2-21.2-7.8c-7.9-2.6-15.8-5.5-23.9-8.7c-8.1-3.2-15.5-7.1-22.2-11.9
	c-6.8-4.7-12.2-10.8-16.2-18.1S8.3,72.6,8.3,61.8s2.8-20.5,8.5-29.4s14-16,24.8-21.4s24-8,39.4-8c12.7,0,24,2.2,33.9,6.7
	c9.9,4.5,18,10.6,24.5,18.2s11,16.3,13.6,25.9l-38.7,12.8c-2.9-6.5-7.1-11.8-12.6-16.2C96.2,46.1,88.6,44,78.8,44
	c-8.7,0-15.3,1.6-20,4.8c-4.7,3.2-7,7.8-7,13.8c0,3.9,1.6,7.3,4.8,10.1c3.2,2.8,7.6,5.3,13.2,7.5c5.6,2.2,12,4.6,19.3,7.1
	c8.7,2.9,17.3,6.2,25.8,9.7c8.6,3.5,16.3,7.9,23.4,13c7,5.1,12.6,11.5,16.8,19.2s6.3,17.1,6.3,28.4c0,13.6-3.4,25.2-10.3,34.8
	c-6.9,9.6-16.1,16.9-27.9,22S98.1,221.9,83.4,221.9L83.4,221.9z"/>
<path class="st0" d="M294.9,282.7l-23.6-35.4c15-1.1,26.5-2.7,34.4-4.7c7.9-2,13.3-4.9,16.2-8.5c2.9-3.7,4.3-8.6,4.3-14.9v-8
	c-7.4,7.1-17.7,10.7-31,10.7s-25.4-3.2-35.1-9.7c-9.7-6.4-17.1-15.7-22.3-27.8c-5.2-12.1-7.8-26.6-7.8-43.5s2.7-30.4,8.2-42.5
	s13.1-21.5,22.8-28.2c9.8-6.7,21.2-10,34.3-10c6.5,0,12.5,0.9,17.8,2.8c5.3,1.9,9.6,4.6,13.1,8.2v-7.4h41.6v137.4
	c0,14.5-1.2,26.7-3.6,36.7c-2.4,9.9-6.4,18-11.9,24.1s-13,10.8-22.4,14C320.5,279.1,308.9,281.4,294.9,282.7L294.9,282.7z
	 M301.6,182c4.9,0,9.5-1,13.6-2.9c4.1-2,7.8-4.7,11-8.2v-59.4c-2.6-3.3-6.1-6.1-10.4-8.2c-4.3-2.1-8.8-3.2-13.5-3.2
	c-10,0-17.6,3.5-22.8,10.4s-7.9,17.1-7.9,30.4c0,8.9,1.2,16.3,3.5,22.4c2.3,6.1,5.7,10.7,10.1,13.9C289.7,180.4,295.2,182,301.6,182
	L301.6,182z"/>
<path class="st0" d="M389.4,218.3V19L431,0v78.3c4.9-6.1,10.9-10.6,17.9-13.6c7-3,15-4.5,24-4.5c11.4,0,21.1,2.4,29,7.2
	s14.1,11.6,18.3,20.5c4.2,8.9,6.3,19.4,6.3,31.6v98.9h-41.6v-81.8c0-12.8-2-22.1-5.9-27.8c-3.9-5.7-10.6-8.6-20-8.6
	s-16.8,2.9-21.3,8.7c-4.5,5.8-6.8,14.8-6.8,27.1v82.4L389.4,218.3L389.4,218.3z"/>
<path class="st0" d="M587.9,221.9c-12.9,0-22.5-3.4-28.8-10.4c-6.3-6.9-9.5-17.3-9.5-31.1v-80.1h-21.8V63.8h21.8V19.6L590.9,0v63.8
	h34v36.6h-34v73.9c0,3.9,0.9,6.9,2.6,8.8c1.8,2,4.5,2.9,8.2,2.9c7.6,0,15.9-2.2,24.9-6.5l-4.7,35.4c-4.7,2.2-9.9,3.9-15.6,5.1
	C600.8,221.3,594.6,221.9,587.9,221.9L587.9,221.9z"/>
<path class="st0" d="M215.9,63.9v154.4h-41.6V63.9c5.4,5.1,12.7,8.2,20.8,8.2S210.4,69,215.9,63.9z"/>
<path class="st0" d="M195,56.6c-6.6,0-12.2-2.4-16.9-7.1c-4.7-4.7-7.1-10.4-7.1-16.9s2.3-12.1,7-16.8c4.7-4.6,10.4-6.9,17-6.9
	s12.7,2.3,17.3,6.8c4.6,4.5,6.9,10.2,6.9,16.9s-2.3,12.3-7,17S201.8,56.6,195,56.6L195,56.6z"/>
<path class="st0" d="M702.5,222.5c-15.2,0-28.2-3.3-39.2-9.9c-11-6.6-19.4-16-25.3-28.2c-5.9-12.2-8.8-26.8-8.8-43.6s3-31.1,9-43.3
	c6-12.2,14.5-21.6,25.5-28.2c11-6.6,24-9.9,38.9-9.9c12.9,0,24.6,2.7,35.1,8c10.5,5.3,18.8,13.5,24.9,24.4s9.2,24.7,9.2,41.4
	c0,2.9,0,6.3-0.2,10.3c-0.1,4-0.4,8-0.9,12H670.2c0.2,6.4,1.7,11.9,4.3,16.6c2.7,4.7,6.4,8.3,11.2,10.9c4.8,2.6,10.4,3.9,16.9,3.9
	c7.7,0,14.3-1.2,19.7-3.7c5.4-2.5,10.6-6.6,15.6-12.3l24.1,24.6c-7,8.2-15.4,14.8-25.2,19.8C726.9,220.1,715.5,222.5,702.5,222.5
	L702.5,222.5z M670.6,123.4h60.9c-0.6-6-2.1-11.1-4.6-15.4c-2.4-4.3-5.8-7.5-10-9.7s-9.3-3.3-15.3-3.3c-8.2,0-15.2,2.4-20.8,7.3
	S671.7,114.2,670.6,123.4L670.6,123.4z"/>
<path class="st0" d="M845.2,222.5c-20.2,0-36-7.2-47.3-21.6c-11.3-14.4-16.9-34.4-16.9-60.2c0-16.1,2.7-30.2,8.2-42.5
	c5.4-12.2,13-21.8,22.7-28.7c9.7-6.9,21-10.3,33.8-10.3s24.2,5.1,32.2,15.4V17.5l42-18.9v220.3h-42v-13
	C871.3,217,860.4,222.5,845.2,222.5L845.2,222.5z M852.2,182.3c6.3,0,11.5-0.9,15.5-2.7c4-1.8,7.4-4.7,10.2-8.5v-59.7
	c-2.8-3.7-6.4-6.5-11.1-8.6c-4.6-2.1-9.5-3.1-14.6-3.1c-9.2,0-16.5,3.5-21.6,10.6s-7.7,17.3-7.7,30.6c0,9.1,1.1,16.6,3.4,22.7
	c2.2,6.1,5.5,10.8,9.9,14C840.5,180.7,845.9,182.3,852.2,182.3L852.2,182.3z"/>
</svg>
