<?xml version="1.0" encoding="UTF-8"?>
<svg id="Layer_1" data-name="Layer 1" xmlns="http://www.w3.org/2000/svg" viewBox="0 0 1080 700">
  <defs>
    <style>
      .cls-1 {
        fill: #fff;
      }

      .cls-2 {
        fill: #606060;
      }
    </style>
  </defs>
  <path class="cls-1" d="M370.69,471.48c-2.71,22-10.01,41.3-21.89,57.9-15.41,21.53-36.31,38.01-62.69,49.45-11.99,5.18-24.65,9.2-37.97,12.03-7.24-3.14-13.77-7.61-19.26-13.11-11.27-11.27-18.24-26.83-18.24-44.02,0-11.32,3.02-21.92,8.29-31.07,4.81-.65,9.33-1.58,13.6-2.77h0c8.76,2.68,17.91,4.01,27.45,4.01,22.64,0,40.76-4.52,54.35-13.59,7.55-5.02,13-11.29,16.34-18.83h40.01Z"/>
  <path class="cls-1" d="M685.5,533.73c0,34.38-27.86,62.25-62.25,62.25H331.05c20.35-12.55,37.43-28.39,50.98-47.31,15.09-21.08,24.45-45.69,27.83-73.14,.16-1.34,.32-2.68,.45-4.04h212.94c17.2,0,32.75,6.97,44.02,18.24,11.26,11.26,18.23,26.82,18.23,44.01Z"/>
  <rect class="cls-1" x="720.75" y="471.48" width="349.53" height="124.5" rx="62.25" ry="62.25"/>
  <path class="cls-1" d="M357.81,387.38c4.1,7.5,7.31,15.8,9.6,24.87h-56.5c-5.95-3.91-12.84-7.49-20.68-10.77-13.82-5.78-29.67-11.61-47.56-17.51-8.94-2.98-17.94-6.11-26.98-9.41-3.24-7.54-5.04-15.84-5.04-24.56,0-19.46,8.93-36.83,22.92-48.25,11.39,4.18,22.74,8.59,34.04,13.25,19.24,7.94,36.74,17.68,52.49,29.22,15.74,11.56,28.31,25.95,37.72,43.16Z"/>
  <path class="cls-1" d="M458.05,350c0,23.59-13.13,44.13-32.48,54.68-5.58,3.05-11.68,5.26-18.15,6.49-1.19-5.8-2.67-11.41-4.42-16.78-2.64-8.05-5.94-15.74-9.82-22.85-11.75-21.48-27.62-39.64-47.21-54.02-15.67-11.49-33-21.48-51.62-29.77h101.44c17.19,0,32.75,6.97,44.01,18.24,11.27,11.26,18.24,26.82,18.24,44.01Z"/>
  <path class="cls-1" d="M353.56,218.17l-31.16,10.35h-6.42c-4.97-6.63-10.78-12.57-17.43-17.81-12.34-9.73-29.51-14.61-51.47-14.61-10.28,0-19.31,.99-27.1,2.98-5.93-9.52-9.34-20.77-9.34-32.81,0-24.23,13.85-45.23,34.08-55.51,8.1,2.24,15.83,5.04,23.22,8.38,22.2,10.08,40.55,23.73,55.04,40.94,14.49,17.22,24.69,36.58,30.58,58.09Z"/>
  <path class="cls-1" d="M864.44,166.27c0,34.38-27.86,62.25-62.25,62.25H397.01l-5.22-19.08c-7.13-26.05-19.64-49.84-37.18-70.68-11.21-13.32-24.37-24.94-39.32-34.74h486.9c17.2,0,32.75,6.97,44.02,18.24s18.23,26.82,18.23,44.01Z"/>
  <rect class="cls-1" x="498.62" y="287.75" width="249.11" height="124.5" rx="62.25" ry="62.25"/>
  <rect class="cls-1" x="895.51" y="104.02" width="162.91" height="124.5" rx="62.25" ry="62.25"/>
  <path class="cls-2" d="M371.9,451.25c0,6.97-.4,13.72-1.21,20.23-2.71,22-10.01,41.3-21.89,57.9-15.41,21.53-36.31,38.01-62.69,49.45-11.99,5.18-24.65,9.2-37.97,12.03-16,3.42-32.95,5.12-50.87,5.12-30.36,0-57.99-5.44-82.9-16.31-24.92-10.87-46.27-26.39-64.04-46.54-17.79-20.16-31.32-44.18-40.61-72.03l87.66-32.96c10.41,22.2,24.58,40.37,42.47,54.53,17.89,14.16,37.82,21.23,59.79,21.23,6.86,0,13.28-.41,19.29-1.24,4.81-.65,9.33-1.58,13.6-2.77h0c8.11-2.23,15.26-5.43,21.46-9.58,13.6-9.05,20.4-22.18,20.4-39.41,0-11.77-3.98-21.51-11.9-29.22-7.93-7.7-18.8-14.43-32.62-20.21-13.81-5.77-29.68-11.6-47.56-17.5-17.67-5.88-35.56-12.4-53.68-19.54-18.13-7.12-34.78-16.02-49.94-26.66-15.18-10.64-27.35-24.18-36.53-40.6-9.17-16.42-13.75-36.75-13.75-60.99s6.39-46.03,19.19-66.08c12.79-20.05,31.36-36.07,55.72-48.07,24.35-12,53.84-18.01,88.5-18.01,19.04,0,36.67,2.25,52.89,6.74,8.09,2.24,15.82,5.03,23.21,8.38,22.2,10.08,40.55,23.73,55.05,40.94,14.49,17.22,24.69,36.58,30.58,58.09l-31.17,10.35-55.82,18.53c-6.56-14.49-16.02-26.61-28.36-36.35-12.35-9.74-29.51-14.6-51.47-14.6-19.48,0-34.49,3.56-45.02,10.7-10.54,7.12-15.8,17.49-15.8,31.08,0,8.83,3.57,16.37,10.7,22.59,7.14,6.23,16.99,11.84,29.56,16.82,12.58,4.99,27.01,10.31,43.32,15.97,8.04,2.71,16.07,5.53,24.06,8.49,11.39,4.18,22.74,8.59,34.04,13.25,19.24,7.94,36.74,17.68,52.49,29.22,15.73,11.56,28.31,25.95,37.72,43.16,4.1,7.5,7.31,15.8,9.6,24.87,2.99,11.7,4.49,24.7,4.49,39Z"/>
  <path class="cls-1" d="M367.41,412.25c-2.29-9.07-5.5-17.37-9.6-24.87-9.41-17.21-21.99-31.6-37.72-43.16-15.75-11.54-33.25-21.28-52.49-29.22-11.3-4.66-22.65-9.07-34.04-13.25-7.99-2.96-16.02-5.78-24.06-8.49-16.31-5.66-30.74-10.98-43.32-15.97-12.57-4.98-22.42-10.59-29.56-16.82-7.13-6.22-10.7-13.76-10.7-22.59,0-13.59,5.26-23.96,15.8-31.08,10.53-7.14,25.54-10.7,45.02-10.7,21.96,0,39.12,4.86,51.47,14.6,12.34,9.74,21.8,21.86,28.36,36.35l55.82-18.53,31.17-10.35c-5.89-21.51-16.09-40.87-30.58-58.09-14.5-17.21-32.85-30.86-55.05-40.94-7.39-3.35-15.12-6.14-23.21-8.38-16.22-4.49-33.85-6.74-52.89-6.74-34.66,0-64.15,6.01-88.5,18.01-24.36,12-42.93,28.02-55.72,48.07-12.8,20.05-19.19,42.08-19.19,66.08s4.58,44.57,13.75,60.99c9.18,16.42,21.35,29.96,36.53,40.6,15.16,10.64,31.81,19.54,49.94,26.66,18.12,7.14,36.01,13.66,53.68,19.54,17.88,5.9,33.75,11.73,47.56,17.5,13.82,5.78,24.69,12.51,32.62,20.21,7.92,7.71,11.9,17.45,11.9,29.22,0,17.23-6.8,30.36-20.4,39.41-6.2,4.15-13.35,7.35-21.46,9.58h0c-4.27,1.19-8.79,2.12-13.6,2.77-6.01,.83-12.43,1.24-19.29,1.24-21.97,0-41.9-7.07-59.79-21.23-17.89-14.16-32.06-32.33-42.47-54.53L9.72,461.1c9.29,27.85,22.82,51.87,40.61,72.03,17.77,20.15,39.12,35.67,64.04,46.54,24.91,10.87,52.54,16.31,82.9,16.31,17.92,0,34.87-1.7,50.87-5.12,13.32-2.83,25.98-6.85,37.97-12.03,26.38-11.44,47.28-27.92,62.69-49.45,11.88-16.6,19.18-35.9,21.89-57.9,.81-6.51,1.21-13.26,1.21-20.23,0-14.3-1.5-27.3-4.49-39Z"/>
</svg>