<?xml version="1.0" encoding="utf-8"?>
<!-- Generator: Adobe Illustrator 27.0.0, SVG Export Plug-In . SVG Version: 6.00 Build 0)  -->
<svg version="1.1" id="Layer_1" xmlns="http://www.w3.org/2000/svg" xmlns:xlink="http://www.w3.org/1999/xlink" x="0px" y="0px"
	 viewBox="0 0 4 4" style="enable-background:new 0 0 4 4;" xml:space="preserve">
<style type="text/css">
	.st0{fill:#FFFFFF;}
	.st1{fill:#C6C6C6;}
</style>
<path class="st0" d="M0.3,2.6h1.6c0.2,0,0.3,0.1,0.3,0.3v0c0,0.2-0.1,0.3-0.3,0.3H0.3C0.1,3.1,0,3,0,2.8v0C0,2.7,0.1,2.6,0.3,2.6z"
	/>
<path class="st1" d="M2.7,2.6h1C3.9,2.6,4,2.7,4,2.8v0C4,3,3.9,3.1,3.7,3.1h-1C2.5,3.1,2.4,3,2.4,2.8v0C2.4,2.7,2.5,2.6,2.7,2.6z"/>
<path class="st0" d="M0.3,1.7h0.6C1,1.7,1.2,1.8,1.2,2l0,0c0,0.2-0.1,0.3-0.3,0.3H0.3C0.1,2.3,0,2.2,0,2l0,0C0,1.8,0.1,1.7,0.3,1.7z
	"/>
<path class="st0" d="M0.3,0.9h2.4C2.9,0.9,3,1,3,1.2v0c0,0.2-0.1,0.3-0.3,0.3H0.3C0.1,1.4,0,1.3,0,1.2v0C0,1,0.1,0.9,0.3,0.9z"/>
<path class="st1" d="M1.6,1.7h0.6c0.2,0,0.3,0.1,0.3,0.3l0,0c0,0.2-0.1,0.3-0.3,0.3H1.6C1.5,2.3,1.4,2.2,1.4,2l0,0
	C1.4,1.8,1.5,1.7,1.6,1.7z"/>
<path class="st1" d="M3.5,0.9h0.2c0.2,0,0.3,0.1,0.3,0.3v0c0,0.2-0.1,0.3-0.3,0.3H3.5c-0.2,0-0.3-0.1-0.3-0.3v0
	C3.2,1,3.3,0.9,3.5,0.9z"/>
</svg>
