<?xml version="1.0" encoding="UTF-8"?>
<svg id="Layer_1" data-name="Layer 1" xmlns="http://www.w3.org/2000/svg" viewBox="0 0 1080 1080">
  <defs>
    <style>
      .cls-1 {
        fill: #fff;
      }

      .cls-2 {
        fill: #333;
      }
    </style>
  </defs>
  <g>
    <path class="cls-1" d="M641.59,740.76c0,18.78-7.61,35.78-19.92,48.09s-29.31,19.92-48.09,19.92H190.74c-4.14,0-8.19-.37-12.13-1.08h-.03c-31.76-5.74-55.85-33.52-55.85-66.93,0-18.78,7.61-35.79,19.92-48.09,1.05-1.05,2.14-2.07,3.26-3.06,17.94,12.47,37.67,18.7,59.21,18.7,23.98,0,44.48-4.93,59.32-14.84,8.28-5.51,14.24-12.42,17.89-20.72h291.25c37.56,0,68.01,30.44,68.01,68.01Z"/>
    <rect class="cls-1" x="680.18" y="672.75" width="381.92" height="136.02" rx="68.01" ry="68.01"/>
    <path class="cls-1" d="M393.07,540c0,15.98-5.51,30.66-14.74,42.27-1.61,2.04-3.34,3.98-5.18,5.82-12.31,12.31-29.31,19.92-48.09,19.92h-64.8c-6.39-4.15-13.77-7.97-22.13-11.47-15.08-6.3-32.37-12.65-51.89-19.1-19.27-6.43-38.79-13.54-58.58-21.31-1.11-.44-2.21-.88-3.31-1.33-1.06-4.76-1.62-9.72-1.62-14.8,0-18.78,7.61-35.78,19.92-48.09s29.31-19.92,48.09-19.92h134.32c37.56,0,68.01,30.45,68.01,68.01Z"/>
    <path class="cls-1" d="M837.17,339.24c0,18.78-7.61,35.79-19.92,48.09-12.31,12.31-29.31,19.92-48.09,19.92H265.79c-5.31-7-11.51-13.28-18.57-18.86-13.46-10.62-32.19-15.94-56.15-15.94-21.26,0-37.61,3.9-49.11,11.67-.48,.33-.96,.66-1.42,1-11.07-12.09-17.81-28.2-17.81-45.88,0-18.78,7.61-35.78,19.92-48.09,9.23-9.23,21.1-15.82,34.37-18.54h.01c4.43-.9,9.01-1.38,13.71-1.38H769.16c37.56,0,68.01,30.45,68.01,68.01Z"/>
    <path class="cls-1" d="M505.44,471.99h136.15c37.56,0,68.01,30.45,68.01,68.01h0c0,37.56-30.45,68.01-68.01,68.01h-136.15c-37.56,0-68.01-30.45-68.01-68.01h0c0-37.56,30.45-68.01,68.01-68.01Z"/>
    <path class="cls-1" d="M939.12,271.23h42c37.56,0,68.01,30.45,68.01,68.01h0c0,37.56-30.45,68.01-68.01,68.01h-42c-37.56,0-68.01-30.45-68.01-68.01h0c0-37.56,30.45-68.01,68.01-68.01Z"/>
  </g>
  <path class="cls-2" d="M393.07,650.78c0,7.58-.43,14.9-1.31,21.97-2.94,24.05-10.91,45.15-23.89,63.29-16.8,23.49-39.61,41.46-68.39,53.94-28.79,12.48-61.11,18.71-96.93,18.71l-.03,.08c-8.15,0-16.12-.36-23.91-1.08h-.03c-23.86-2.2-46.02-7.78-66.51-16.73-27.2-11.86-50.49-28.78-69.89-50.78-5.24-5.95-10.15-12.2-14.72-18.77-19.85-28.52-7.52-68.11,25.01-80.33h0c22.01-8.27,46.67-1.01,61.11,17.55,7.73,9.94,16.5,18.77,26.29,26.5,1.99,1.58,4,3.07,6.04,4.48,17.94,12.47,37.67,18.7,59.21,18.7,23.98,0,44.48-4.93,59.32-14.84,8.28-5.51,14.24-12.42,17.89-20.72,2.91-6.56,4.35-13.99,4.35-22.29,0-12.85-4.32-23.46-12.97-31.88-3.85-3.73-8.33-7.25-13.45-10.57-6.39-4.15-13.77-7.97-22.13-11.47-15.08-6.3-32.37-12.65-51.89-19.1-19.27-6.43-38.79-13.54-58.58-21.31-1.11-.44-2.21-.88-3.31-1.33-18.48-7.53-35.55-16.8-51.17-27.78-16.55-11.62-29.84-26.38-39.85-44.3-10-17.93-15.01-40.1-15.01-66.55s6.99-50.22,20.94-72.09c13.96-21.88,34.24-39.36,60.79-52.45,21.85-10.78,47.51-17.11,76.97-19.02h.01c6.35-.42,12.88-.62,19.58-.62,31.14,0,58.8,5.49,83.03,16.5,24.23,10.98,44.24,25.89,60.05,44.67,15.82,18.79,28.57,50.62,35.02,74.09h-108.92c-5.31-7-11.51-13.28-18.57-18.86-13.46-10.62-32.19-15.94-56.15-15.94-21.26,0-37.61,3.9-49.11,11.67-.48,.33-.96,.66-1.42,1-10.55,7.73-15.82,18.72-15.82,32.91,0,9.64,3.9,17.85,11.67,24.64,7.8,6.8,18.54,12.93,32.25,18.35,8.82,3.5,18.51,7.16,29.04,10.97,5.81,2.1,11.88,4.25,18.21,6.44,21.26,7.16,42.37,15.08,63.38,23.71,20.99,8.65,40.09,19.27,57.28,31.87,17.17,12.61,30.9,28.3,41.15,47.08,.21,.39,.42,.78,.63,1.18,9.83,18.58,14.74,41.41,14.74,68.51Z"/>
</svg>